<?xml version="1.0" encoding="utf-8"?>
<!-- Generator: Adobe Illustrator 26.0.3, SVG Export Plug-In . SVG Version: 6.00 Build 0)  -->
<svg version="1.1" id="Livello_1" xmlns="http://www.w3.org/2000/svg" xmlns:xlink="http://www.w3.org/1999/xlink" x="0px" y="0px"
	 viewBox="0 0 1324 1323" style="enable-background:new 0 0 1324 1323;" xml:space="preserve">
<style type="text/css">
	.st0{fill-rule:evenodd;clip-rule:evenodd;fill:url(#SVGID_1_);}
</style>
<linearGradient id="SVGID_1_" gradientUnits="userSpaceOnUse" x1="363.3881" y1="1082.0503" x2="364.4114" y2="1081.0126" gradientTransform="matrix(658.4548 266.033 267.9012 -663.0788 -528686.3125 620979)">
	<stop  offset="0" style="stop-color:#FF8F71"/>
	<stop  offset="1" style="stop-color:#FF3E55"/>
</linearGradient>
<path class="st0" d="M965.8,827.9l-127.5,315.6L522.7,1016l88.6-219.4c21.5-53.1,82-78.8,135.1-57.3L965.8,827.9z M441.7,614.7
	c87.2,35.2,129.3,134.4,94,221.6s-134.4,129.3-221.6,94s-129.3-134.4-94-221.6S354.5,579.5,441.7,614.7z M1116.3,456.4L988.8,772
	l-219.4-88.6c-53.1-21.5-78.8-82-57.3-135.1l0,0l88.6-219.4L1116.3,456.4z M748.9,307l-88.6,219.4c-21.5,53.1-82,78.8-135.1,57.3
	l-219.4-88.6l127.5-315.6L748.9,307z"/>
</svg>
